<?xml version="1.0" encoding="utf-8"?>
<!-- Generator: Adobe Illustrator 17.1.0, SVG Export Plug-In . SVG Version: 6.00 Build 0)  -->
<!DOCTYPE svg PUBLIC "-//W3C//DTD SVG 1.1//EN" "http://www.w3.org/Graphics/SVG/1.1/DTD/svg11.dtd">
<svg version="1.1" xmlns="http://www.w3.org/2000/svg" xmlns:xlink="http://www.w3.org/1999/xlink" x="0px" y="0px"
	 viewBox="0 0 467.977 470.976" enable-background="new 0 0 467.977 470.976" xml:space="preserve">
<g id="Layer_1">
</g>
<g id="Layer_2">
</g>
<g id="Layer_3">
</g>
<g id="Layer_4">
</g>
<g id="Layer_5">
</g>
<g id="Layer_6">
	<g>
		<path fill="#FFFFFF" d="M236.379,132.983c5.633-0.658,10.007-5.44,10.007-11.25c0-6.26-5.074-11.334-11.334-11.334
			s-11.334,5.074-11.334,11.334c0,5.786,4.338,10.55,9.937,11.239c0.364-0.004,0.725-0.021,1.09-0.021
			C235.291,132.951,235.833,132.974,236.379,132.983z"/>
		<path fill="#FFFFFF" d="M234.461,10.719c-125.086,0-226.489,101.402-226.489,226.489c0,125.086,101.403,226.489,226.489,226.489
			S460.95,362.294,460.95,237.208C460.95,112.121,359.547,10.719,234.461,10.719z M220.921,133.864
			c-1.867-2.739-2.961-6.047-2.961-9.612c0-9.439,7.652-17.091,17.091-17.091s17.091,7.652,17.091,17.091
			c0,3.599-1.118,6.933-3.017,9.688c82.119,11.011,146.266,112.483,146.266,132.985c0,21.684-70.26,57.845-159.149,57.845
			S74.097,288.608,74.097,266.924C74.097,246.376,138.535,144.489,220.921,133.864z M234.461,344.229
			c-96.084,0-173.976-34.619-173.976-77.323c0-6.941,2.07-13.667,5.929-20.067c-1.572,3.896-2.408,7.896-2.408,11.975
			c0,40.221,79.957,72.827,170.455,72.827c90.498,0,170.455-32.606,170.455-72.827c0-4.079-0.836-8.078-2.408-11.975
			c3.859,6.4,5.929,13.125,5.929,20.067C408.437,309.61,330.546,344.229,234.461,344.229z"/>
	</g>
</g>
<g id="Layer_7">
</g>
<g id="Layer_8">
</g>
<g id="Layer_9">
</g>
<g id="Layer_10">
</g>
<g id="Layer_11">
</g>
</svg>
