<?xml version="1.0" encoding="utf-8"?>
<!-- Generator: Adobe Illustrator 17.1.0, SVG Export Plug-In . SVG Version: 6.00 Build 0)  -->
<!DOCTYPE svg PUBLIC "-//W3C//DTD SVG 1.1//EN" "http://www.w3.org/Graphics/SVG/1.1/DTD/svg11.dtd">
<svg version="1.1" xmlns="http://www.w3.org/2000/svg" xmlns:xlink="http://www.w3.org/1999/xlink" x="0px" y="0px"
	 viewBox="0 0 470.976 470.976" enable-background="new 0 0 470.976 470.976" xml:space="preserve">
<g id="Layer_1">
</g>
<g id="Layer_2">
</g>
<g id="Layer_3">
</g>
<g id="Layer_4">
</g>
<g id="Layer_5">
</g>
<g id="Layer_6">
</g>
<g id="Layer_7">
</g>
<g id="Layer_8">
	<g>
		<path fill="#FFFFFF" d="M255.496,181.298c-34.785,0-63.086,26.025-63.086,59.752c0,33.728,28.301,61.166,63.086,61.166
			c34.786,0,63.086-27.439,63.086-61.166C318.582,207.323,290.282,181.298,255.496,181.298z M255.496,273.932
			c-18.7,0-33.913-14.75-33.913-32.882c0-18.131,15.213-32.881,33.913-32.881c18.701,0,33.914,14.75,33.914,32.881
			C289.409,259.182,274.196,273.932,255.496,273.932z"/>
		<ellipse fill="#FFFFFF" cx="158.765" cy="197.184" rx="13.044" ry="12.647"/>
		<path fill="#FFFFFF" d="M236.182,8.719C111.096,8.719,9.693,110.121,9.693,235.208c0,125.086,101.402,226.489,226.489,226.489
			s226.489-101.402,226.489-226.489C462.671,110.121,361.269,8.719,236.182,8.719z M122.178,134.411h41.677v16.657h-41.677V134.411z
			 M367.258,325.968H105.106v-164.72h72.041c7.16,0,13.718-3.885,16.985-10.062l11.402-21.555h97.776l12.611,22.077
			c3.363,5.887,9.757,9.541,16.699,9.541h34.64V325.968z"/>
	</g>
</g>
<g id="Layer_9">
</g>
<g id="Layer_10">
</g>
<g id="Layer_11">
</g>
</svg>
