<?xml version="1.0" encoding="utf-8"?>
<!-- Generator: Adobe Illustrator 17.1.0, SVG Export Plug-In . SVG Version: 6.00 Build 0)  -->
<!DOCTYPE svg PUBLIC "-//W3C//DTD SVG 1.1//EN" "http://www.w3.org/Graphics/SVG/1.1/DTD/svg11.dtd">
<svg version="1.1" xmlns="http://www.w3.org/2000/svg" xmlns:xlink="http://www.w3.org/1999/xlink" x="0px" y="0px"
	 viewBox="0 0 466.477 466.477" enable-background="new 0 0 466.477 466.477" xml:space="preserve">
<g id="background">
</g>
<g id="cake">
</g>
<g id="Layer_3">
</g>
<g id="Layer_4">
</g>
<g id="Layer_5">
</g>
<g id="Layer_6">
</g>
<g id="Layer_7">
</g>
<g id="Layer_8">
</g>
<g id="Layer_9">
</g>
<g id="Layer_10">
</g>
<g id="Layer_11">
	<path fill="#FFFFFF" d="M233.238,7.499C108.152,7.499,6.75,108.902,6.75,233.988s101.402,226.489,226.488,226.489
		c125.086,0,226.489-101.402,226.489-226.489S358.325,7.499,233.238,7.499z M232.274,115.709c9.483,0,58.824-22.647,40.224,43.582
		c0,0-17.963,53.497-40.123,53.497s-40.123-53.497-40.123-53.497C173.145,93.062,222.495,115.709,232.274,115.709z M126.374,204.029
		c2.931-9.019-3.361-62.943,53.879-24.787c0,0,45.327,33.616,38.479,54.69c-6.847,21.075-63.277,21.627-63.277,21.627
		C86.564,253.265,123.352,213.33,126.374,204.029z M215.341,326.919c-33.476,60.256-52.226,9.299-59.123,2.366
		c-6.688-6.723-57.542-25.729,2.528-59.254c0,0,50.595-24.995,66.223-9.286C240.597,276.454,215.341,326.919,215.341,326.919z
		 M232.59,250.374c-5.73,0-10.376-4.646-10.376-10.376s4.646-10.376,10.376-10.376c5.731,0,10.376,4.646,10.376,10.376
		S238.321,250.374,232.59,250.374z M313.306,329.287c-6.897,6.933-25.647,57.89-59.123-2.366c0,0-25.256-50.465-9.627-66.174
		c15.628-15.709,66.223,9.286,66.223,9.286C370.848,303.558,319.994,322.565,313.306,329.287z M311.02,255.477
		c0,0-56.43-0.553-63.277-21.627c-6.847-21.075,38.48-54.69,38.48-54.69c57.24-38.156,50.949,15.769,53.879,24.787
		C343.124,213.247,379.913,253.183,311.02,255.477z"/>
</g>
<g id="Layer_12">
</g>
<g id="Layer_13">
</g>
<g id="Layer_14">
</g>
<g id="Layer_15">
</g>
</svg>
