<?xml version="1.0" encoding="utf-8"?>
<!-- Generator: Adobe Illustrator 17.1.0, SVG Export Plug-In . SVG Version: 6.00 Build 0)  -->
<!DOCTYPE svg PUBLIC "-//W3C//DTD SVG 1.1//EN" "http://www.w3.org/Graphics/SVG/1.1/DTD/svg11.dtd">
<svg version="1.1" xmlns="http://www.w3.org/2000/svg" xmlns:xlink="http://www.w3.org/1999/xlink" x="0px" y="0px"
	 viewBox="0 0 466.477 466.477" enable-background="new 0 0 466.477 466.477" xml:space="preserve">
<g id="background">
</g>
<g id="cake">
</g>
<g id="Layer_3">
</g>
<g id="Layer_4">
</g>
<g id="Layer_5">
</g>
<g id="Layer_6">
</g>
<g id="Layer_7">
</g>
<g id="Layer_8">
</g>
<g id="Layer_9">
	<path fill="#FFFFFF" d="M233.238,6.75C108.152,6.75,6.75,108.152,6.75,233.238s101.402,226.489,226.488,226.489
		c125.086,0,226.489-101.402,226.489-226.489S358.325,6.75,233.238,6.75z M196.376,136.818c4.661-2.867,32.253-19.707,36.551-24.726
		c4.303,5.019,31.891,21.858,36.552,24.726c11.468,8.601,15.051,21.143,14.335,27.235c-0.144,1.168-0.298,2.296-0.487,3.414
		l-41.059,56.626c-1.392-0.601-2.852-1.068-4.373-1.391v-19.945c0-2.748-2.221-4.969-4.969-4.969c-2.748,0-4.969,2.221-4.969,4.969
		v19.94c-0.895,0.194-1.729,0.517-2.584,0.805l-41.173-53.864c-0.427-0.557-0.954-0.994-1.53-1.312
		c-0.263-1.401-0.457-2.802-0.631-4.273C181.325,157.961,184.908,145.419,196.376,136.818z M119.01,246.801
		c-1.287-5.312-8.775-36.76-12.219-42.4c6.097-2.539,30.644-23.578,34.808-27.121c11.722-8.248,24.76-7.781,30.33-5.217
		c1.218,0.557,2.371,1.123,3.508,1.729c0.154,0.661,0.432,1.302,0.87,1.878l40.477,52.954c-1.64,1.545-3.011,3.339-4.159,5.297
		l-19.056-6.186c-2.604-0.84-5.417,0.581-6.261,3.195c-0.844,2.614,0.586,5.411,3.195,6.261l19.066,6.191
		c-0.08,0.79-0.239,1.56-0.239,2.37c0,0.636,0.139,1.232,0.189,1.858l-65.054,21.918c-1.316-0.179-2.628-0.407-3.985-0.681
		C134.468,267.646,123.645,260.366,119.01,246.801z M229.037,337.494c-0.542,1.098-1.113,2.176-1.734,3.284
		c-3.001,5.347-13.272,13.386-27.603,13.605c-5.456-0.417-37.674-3.016-44.104-1.481c-0.527-6.589-12.954-36.432-15.036-41.491
		c-4.224-13.694,0.253-25.948,4.412-30.455c0.517-0.561,1.024-1.103,1.541-1.63l65.864-22.191c0.859,1.545,1.858,2.981,3.031,4.288
		l-11.771,16.199c-1.615,2.226-1.118,5.332,1.098,6.937c0.885,0.641,1.903,0.949,2.917,0.949c1.541,0,3.056-0.701,4.025-2.047
		l11.731-16.139c1.774,0.78,3.662,1.322,5.63,1.65V337.494z M233.261,259.387c-0.109,0.005-0.214,0.035-0.323,0.035
		c-6.177,0-11.349-4.144-13.034-9.784c-0.03-0.104-0.064-0.204-0.094-0.308c-0.313-1.148-0.537-2.33-0.537-3.578
		c0-3.543,1.386-6.738,3.597-9.168c0.76-0.835,1.59-1.595,2.534-2.221c0.084-0.06,0.189-0.099,0.278-0.154
		c1.843-1.163,3.98-1.863,6.276-2.027c0.323-0.025,0.636-0.099,0.969-0.099c2.927,0,5.62,0.939,7.851,2.509
		c0.084,0.06,0.154,0.134,0.244,0.199c3.364,2.494,5.57,6.455,5.57,10.957c0,1.133-0.174,2.216-0.438,3.27
		c-0.025,0.109-0.064,0.199-0.094,0.303c-1.531,5.6-6.485,9.754-12.482,10.037C233.47,259.363,233.37,259.387,233.261,259.387z
		 M326.931,310.856c-2.077,5.053-14.509,34.897-15.031,41.486c-6.43-1.525-38.653,1.063-44.104,1.481
		c-14.33-0.219-24.601-8.258-27.603-13.605c-0.432-0.765-0.835-1.521-1.227-2.271v-69.486c1.197-0.318,2.37-0.666,3.478-1.163
		l11.737,16.154c0.979,1.332,2.484,2.047,4.025,2.047c1.019,0,2.037-0.303,2.922-0.944c2.226-1.61,2.713-4.716,1.098-6.937
		l-11.771-16.204c1.526-1.699,2.818-3.602,3.796-5.699l65.769,22.112c0.85,0.83,1.68,1.68,2.5,2.564
		C326.687,284.903,331.159,297.152,326.931,310.856z M347.462,245.937c-4.626,13.57-15.449,20.85-21.466,22.052
		c-0.89,0.184-1.764,0.338-2.639,0.482l-66.857-22.48c0-0.08,0.03-0.154,0.03-0.234c0-0.815-0.164-1.575-0.243-2.365l19.071-6.196
		c2.614-0.85,4.044-3.657,3.195-6.261c-0.854-2.614-3.667-4.045-6.261-3.195l-19.061,6.191c-0.834-1.436-1.799-2.778-2.921-4.005
		l41.685-57.486c0.834-0.422,1.684-0.835,2.563-1.242c5.575-2.564,18.614-3.031,30.331,5.217
		c4.169,3.543,28.711,24.581,34.798,27.121C356.242,209.176,348.754,240.62,347.462,245.937z"/>
</g>
<g id="Layer_10">
</g>
</svg>
