<?xml version="1.0" encoding="utf-8"?>
<!-- Generator: Adobe Illustrator 17.1.0, SVG Export Plug-In . SVG Version: 6.00 Build 0)  -->
<!DOCTYPE svg PUBLIC "-//W3C//DTD SVG 1.1//EN" "http://www.w3.org/Graphics/SVG/1.1/DTD/svg11.dtd">
<svg version="1.1" xmlns="http://www.w3.org/2000/svg" xmlns:xlink="http://www.w3.org/1999/xlink" x="0px" y="0px"
	 viewBox="0 0 469.477 471.839" enable-background="new 0 0 469.477 471.839" xml:space="preserve">
<g id="Layer_1">
	<path fill="#FFFFFF" d="M233.799,6.961C108.713,6.961,7.311,108.363,7.311,233.45s101.402,226.489,226.489,226.489
		c125.086,0,226.488-101.402,226.488-226.489S358.885,6.961,233.799,6.961z M51.585,329.309c0-20.921-1.683-32.451,20.185-37.493
		c21.877-5.046,42.242-9.465,32.379-28.059c-30.02-56.598-7.958-86.865,23.744-86.865c21.456,0,38.165,13.853,38.165,39.375
		c0,70.705-40.331,32.356-40.335,113.042H51.585z M329.319,329.309H137.351c0-26.315-2.115-40.817,25.391-47.161
		c26.926-6.212,53.505-11.764,40.729-35.294c-37.864-69.732-10.796-109.265,29.865-109.265c39.874,0,67.627,38.072,29.866,109.265
		c-12.406,23.387,13.209,28.945,40.727,35.294C331.436,288.492,329.319,302.994,329.319,329.309z M341.875,329.309
		c-0.003-80.686-40.334-42.336-40.334-113.042c0-25.523,16.71-39.375,38.165-39.375c31.701,0,53.763,30.267,23.744,86.865
		c-9.863,18.594,10.501,23.012,32.379,28.059c21.868,5.043,20.185,16.573,20.185,37.493H341.875z"/>
</g>
<g id="Layer_2">
</g>
<g id="Layer_3">
</g>
<g id="Layer_4">
</g>
<g id="Layer_5">
</g>
<g id="Layer_6">
</g>
<g id="Layer_7">
</g>
<g id="Layer_8">
</g>
<g id="Layer_9">
</g>
<g id="Layer_10">
</g>
<g id="Layer_11">
</g>
</svg>
