<?xml version="1.0" encoding="utf-8"?>
<!-- Generator: Adobe Illustrator 17.1.0, SVG Export Plug-In . SVG Version: 6.00 Build 0)  -->
<!DOCTYPE svg PUBLIC "-//W3C//DTD SVG 1.1//EN" "http://www.w3.org/Graphics/SVG/1.1/DTD/svg11.dtd">
<svg version="1.1" xmlns="http://www.w3.org/2000/svg" xmlns:xlink="http://www.w3.org/1999/xlink" x="0px" y="0px"
	 viewBox="0 0 466.477 466.477" enable-background="new 0 0 466.477 466.477" xml:space="preserve">
<g id="background">
</g>
<g id="cake">
</g>
<g id="Layer_3">
</g>
<g id="Layer_4">
</g>
<g id="Layer_5">
</g>
<g id="Layer_6">
</g>
<g id="Layer_7">
</g>
<g id="Layer_8">
</g>
<g id="Layer_9">
</g>
<g id="Layer_10">
	<path fill="#FFFFFF" d="M233.239,6.75C108.152,6.75,6.75,108.152,6.75,233.238s101.402,226.489,226.489,226.489
		c125.086,0,226.488-101.402,226.488-226.489S358.324,6.75,233.239,6.75z M200.228,175.286c0,0,9.92-4.132,23.146,0
		c0,0,0.063,23.776-0.004,53.717c-9.112-0.911-17.608,0.107-22.41,0.925C200.326,205.771,199.951,184.733,200.228,175.286z
		 M221.624,345.468c-0.688,8.143-8.545,7.853-8.545,7.853s-7.991,0.058-8.263-7.442c-0.21-5.664-2.435-64.053-3.725-111.896
		c4.551-0.791,13.208-1.881,22.311-0.934C223.295,276.194,222.892,330.478,221.624,345.468z M237.61,143.366
		c-2.827,4.73-4.073,10.363-6.146,15.464c-1.948,4.797-3.868,9.603-5.789,14.41l-1.273-0.393c-4.217-1.322-8.549-1.992-12.864-1.992
		c-7.437,0-12.337,2.01-12.542,2.095l-1.215,0.505c-5.833-11.417-13.405-21.95-16.746-34.505c-0.255-0.947,1.063-1.63,2.09-1.568
		c-0.518-1.407-1.032-2.814-1.545-4.221c-0.125-0.353,1.116-0.88,2.095-1.036c-0.237-0.666-0.505-1.322-0.715-1.992
		c-0.357-1.148,1.349-1.921,2.426-1.586c0.313-0.147,0.674-0.25,1.027-0.295c0.335-0.576,1.143-0.925,1.867-0.889
		c-0.741-1.304-1.5-2.577-2.292-3.841c-0.335-0.527,1.89-1.474,2.854-1.108c0.237-0.188,0.554-0.344,0.889-0.447
		c0.902-0.505,2.345-0.599,2.484,0.147c0.036,0.197,0.08,0.384,0.116,0.581c-0.009-0.335,0.425-0.612,0.974-0.8
		c-0.058-0.943-0.147-1.876-0.174-2.818c-0.027-1.157,1.988-1.675,2.845-0.996c0.277-0.112,0.581-0.183,0.884-0.241
		c-0.036-0.313-0.094-0.621-0.125-0.938c-0.156-1.59,3.042-2.39,3.194-0.844c0.009,0.112,0.031,0.228,0.04,0.344
		c0.442-0.246,0.979-0.389,1.452-0.389c-0.179-1.282,2.886-2.059,3.185-0.795c0.129-0.125,0.339-0.25,0.599-0.357
		c-0.072-0.701-0.13-1.398-0.206-2.09c-0.116-1.103,3.095-1.778,3.194-0.853c0.121,1.143,0.223,2.287,0.339,3.435
		c0.527,0.018,0.965,0.219,1.041,0.701c0,0.009,0,0.036,0.004,0.054c0.277-0.143,0.59-0.25,0.912-0.304
		c0-0.197,0.009-0.384,0.009-0.581c0.004-1.416,3.229-1.907,3.234-0.255c0.183-0.036,0.357-0.049,0.522-0.045
		c0.469-0.38,1.202-0.549,1.805-0.438c0.188-0.17,0.433-0.331,0.728-0.433c0.934-0.666,2.859-0.768,2.716,0.322
		c-0.081,0.634-0.121,1.264-0.201,1.903c0.612-0.219,1.318-0.264,1.747-0.054c0.188-0.505,1.277-0.844,2.135-0.925
		c0-0.004,0.004-0.013,0.004-0.018c0.121-1.197,3.35-1.764,3.207-0.357c-0.089,0.84-0.21,1.657-0.304,2.492
		c0.027,0.107,0.063,0.201,0.049,0.331c-0.031,0.255-0.081,0.496-0.107,0.75c0.791-0.134,1.541-0.018,1.447,0.491
		c-0.161,0.858-0.335,1.715-0.5,2.568c0.907-0.232,1.943-0.049,1.898,0.826c-0.004,0.125-0.027,0.255-0.031,0.38
		c1.037-0.451,2.466-0.313,2.247,0.75c-0.156,0.746-0.317,1.496-0.474,2.233c0.585-0.201,1.273-0.264,1.702-0.13
		c0.081-0.308,0.17-0.616,0.246-0.929c0.25-1.018,3.449-1.523,3.185-0.442c-0.496,2.028-1.027,4.047-1.582,6.057
		c0.599-0.031,1.081,0.121,1.023,0.54c-0.027,0.174-0.08,0.353-0.107,0.532c0.281,0.04,0.451,0.125,0.371,0.272
		c-0.254,0.469-0.464,0.969-0.71,1.443c-0.058,0.322-0.121,0.643-0.188,0.96c0.75-0.04,1.443,0.259,1.457,0.929
		c0.826-0.027,1.487,0.214,1.018,0.858c-0.134,0.183-0.241,0.375-0.366,0.558c0.545,0.013,0.911,0.179,0.742,0.54
		c-0.719,1.519-1.398,3.051-2.055,4.592c1.014-0.322,2.282-0.29,2.055,0.357c-0.054,0.138-0.116,0.281-0.17,0.433
		C237.704,142.473,237.945,142.808,237.61,143.366z M276.337,125.254c7.316,0,4.132,11.305,1.626,19.667h-9.099
		c0,0-3.484-5.811-3.551-9.836C265.237,130.587,269.132,125.254,276.337,125.254z M282.353,349.14h-0.022l0.022,1.157
		c0.054,2.546-1.965,4.641-4.507,4.699c-0.031,0-0.063,0-0.094,0c-2.497,0-4.542-2.001-4.596-4.511l-0.129-6.2
		c-1.938-22.419-9.514-117.471-3.641-170.214h0.121l-0.536-25.769l9.201-0.188l0.545,26.519
		C280.022,180.449,290.608,232.357,282.353,349.14z"/>
</g>
</svg>
