<?xml version="1.0" encoding="utf-8"?>
<!-- Generator: Adobe Illustrator 17.1.0, SVG Export Plug-In . SVG Version: 6.00 Build 0)  -->
<!DOCTYPE svg PUBLIC "-//W3C//DTD SVG 1.1//EN" "http://www.w3.org/Graphics/SVG/1.1/DTD/svg11.dtd">
<svg version="1.1" xmlns="http://www.w3.org/2000/svg" xmlns:xlink="http://www.w3.org/1999/xlink" x="0px" y="0px"
	 viewBox="0 0 466.477 466.477" enable-background="new 0 0 466.477 466.477" xml:space="preserve">
<g id="background">
</g>
<g id="cake">
</g>
<g id="Layer_3">
</g>
<g id="Layer_4">
</g>
<g id="Layer_5">
</g>
<g id="Layer_6">
</g>
<g id="Layer_7">
</g>
<g id="Layer_8">
</g>
<g id="Layer_9">
</g>
<g id="Layer_10">
</g>
<g id="Layer_11">
</g>
<g id="Layer_12">
	<path fill="#FFFFFF" d="M233.239,6.75C108.152,6.75,6.75,108.152,6.75,233.238s101.402,226.489,226.489,226.489
		c125.086,0,226.488-101.402,226.488-226.489S358.324,6.75,233.239,6.75z M215.075,344.117c0,7.129-2.8,12.909-9.93,12.909
		s-12.909-5.779-12.909-12.909V227.94c0,0,5.781-0.99,12.909-0.993l0,0c7.129,0,12.909,0.993,12.909,0.993L215.075,344.117z
		 M218.054,224.355c0,0-5.779-0.993-12.909-0.993s-12.909,0.993-12.909,0.993v-53.289c0,0,5.779-1.986,12.909-1.986
		s12.909,1.986,12.909,1.986V224.355z M229.969,139.578c-2.671,4.469-3.849,9.791-5.807,14.611c-1.84,4.533-3.655,9.074-5.47,13.615
		l-1.203-0.371c-3.984-1.249-8.078-1.882-12.155-1.882c-7.027,0-11.657,1.899-11.851,1.979l-1.147,0.477
		c-5.512-10.787-12.666-20.739-15.823-32.603c-0.241-0.895,1.004-1.54,1.975-1.481c-0.489-1.329-0.975-2.659-1.46-3.988
		c-0.118-0.333,1.055-0.831,1.979-0.979c-0.224-0.629-0.477-1.249-0.675-1.882c-0.338-1.085,1.275-1.815,2.292-1.498
		c0.295-0.139,0.637-0.236,0.971-0.279c0.316-0.544,1.08-0.874,1.764-0.84c-0.7-1.232-1.417-2.435-2.165-3.63
		c-0.316-0.498,1.786-1.393,2.697-1.047c0.224-0.177,0.523-0.325,0.839-0.422c0.853-0.477,2.216-0.566,2.347,0.139
		c0.034,0.186,0.076,0.363,0.109,0.549c-0.008-0.317,0.401-0.578,0.92-0.755c-0.055-0.891-0.139-1.773-0.165-2.663
		c-0.025-1.093,1.878-1.583,2.688-0.941c0.262-0.106,0.549-0.173,0.835-0.228c-0.033-0.295-0.088-0.587-0.118-0.886
		c-0.147-1.503,2.875-2.258,3.018-0.798c0.008,0.106,0.029,0.215,0.038,0.325c0.418-0.232,0.925-0.367,1.372-0.367
		c-0.168-1.211,2.727-1.946,3.01-0.751c0.122-0.118,0.321-0.236,0.565-0.338c-0.068-0.663-0.123-1.321-0.194-1.975
		c-0.11-1.042,2.925-1.68,3.018-0.806c0.114,1.08,0.211,2.161,0.32,3.246c0.498,0.017,0.912,0.207,0.983,0.663
		c0,0.008,0,0.034,0.004,0.051c0.262-0.135,0.558-0.236,0.861-0.287c0-0.186,0.009-0.363,0.009-0.549
		c0.004-1.338,3.051-1.802,3.055-0.241c0.173-0.034,0.338-0.046,0.494-0.042c0.443-0.359,1.136-0.519,1.705-0.414
		c0.177-0.16,0.41-0.312,0.688-0.409c0.882-0.629,2.702-0.726,2.566,0.304c-0.076,0.599-0.114,1.194-0.19,1.798
		c0.579-0.207,1.246-0.249,1.65-0.051c0.177-0.477,1.207-0.798,2.018-0.874c0-0.004,0.004-0.013,0.004-0.017
		c0.114-1.131,3.165-1.667,3.03-0.338c-0.084,0.793-0.198,1.566-0.287,2.355c0.025,0.101,0.059,0.19,0.046,0.312
		c-0.029,0.241-0.076,0.468-0.102,0.709c0.747-0.127,1.456-0.017,1.368,0.464c-0.152,0.81-0.316,1.621-0.473,2.427
		c0.857-0.219,1.836-0.046,1.794,0.781c-0.004,0.118-0.025,0.241-0.03,0.359c0.979-0.426,2.33-0.295,2.124,0.709
		c-0.148,0.705-0.3,1.414-0.448,2.11c0.553-0.19,1.203-0.249,1.608-0.122c0.076-0.291,0.161-0.582,0.232-0.878
		c0.237-0.962,3.259-1.439,3.01-0.418c-0.468,1.916-0.971,3.824-1.495,5.723c0.566-0.029,1.021,0.114,0.967,0.511
		c-0.025,0.165-0.076,0.333-0.101,0.502c0.266,0.038,0.426,0.118,0.35,0.257c-0.24,0.443-0.439,0.916-0.671,1.363
		c-0.055,0.304-0.114,0.608-0.178,0.907c0.709-0.038,1.363,0.245,1.376,0.878c0.78-0.025,1.405,0.203,0.962,0.81
		c-0.126,0.173-0.228,0.354-0.346,0.528c0.515,0.013,0.861,0.169,0.701,0.511c-0.679,1.435-1.321,2.883-1.941,4.339
		c0.958-0.304,2.157-0.274,1.941,0.338c-0.051,0.131-0.109,0.266-0.16,0.409C230.057,138.734,230.285,139.05,229.969,139.578z
		 M276.362,115.212c6.603,0,3.729,10.202,1.467,17.748h-7.308c0,0-3.144-5.244-3.205-8.876
		C267.248,120.025,269.861,115.212,276.362,115.212z M283.991,239.55c-0.231,26.316-6.338,105.263-6.338,105.263
		c0,3.364-0.922,6.091-4.286,6.091c-3.364,0-4.287-2.727-4.287-6.091l-2.667-105.56l3.496-72.788l0.074-27.401
		c0-3.364,0.02-3.384,3.384-3.384c3.364,0,4.286,0.02,4.286,3.384c0,0-0.773,11.852,0.458,27.723
		C278.111,166.787,284.125,224.391,283.991,239.55z"/>
</g>
<g id="Layer_13">
</g>
<g id="Layer_14">
</g>
<g id="Layer_15">
</g>
</svg>
