<?xml version="1.0" encoding="utf-8"?>
<!-- Generator: Adobe Illustrator 17.1.0, SVG Export Plug-In . SVG Version: 6.00 Build 0)  -->
<!DOCTYPE svg PUBLIC "-//W3C//DTD SVG 1.1//EN" "http://www.w3.org/Graphics/SVG/1.1/DTD/svg11.dtd">
<svg version="1.1" xmlns="http://www.w3.org/2000/svg" xmlns:xlink="http://www.w3.org/1999/xlink" x="0px" y="0px"
	 viewBox="0 0 467.977 469.477" enable-background="new 0 0 467.977 469.477" xml:space="preserve">
<g id="Layer_1">
</g>
<g id="Layer_2">
</g>
<g id="Layer_3">
</g>
<g id="Layer_4">
</g>
<g id="Layer_5">
	<path fill="#FFFFFF" d="M234.179,9.219C109.093,9.219,7.691,110.621,7.691,235.707c0,125.086,101.403,226.489,226.489,226.489
		s226.489-101.402,226.489-226.489C460.668,110.621,359.265,9.219,234.179,9.219z M250.102,322.768v24.072h-34.444v-21.53
		c-16.532-1.416-38.364-7.406-54.448-16.271l11.396-39.694c18.214,7.106,44.788,16.039,64.441,11.75
		c17.191-3.752,21.521-19.184,1.292-27.903c-17.09-7.673-75.892-15.695-75.892-64.873c0-20.375,15.272-48.377,53.211-56.658v-24.433
		h34.444v22.421c14.76,1.014,29.818,3.74,47.206,9.178c-1.741,7.597-9.258,40.565-9.258,40.565
		c-12.007-4.084-31.631-11.228-50.475-10.169c-23.281,1.308-24.949,18.311-9.254,26.158c32.197,14.562,78.827,26.944,78.826,70.366
		C307.194,299.306,281.052,318.415,250.102,322.768z"/>
</g>
<g id="Layer_6">
</g>
<g id="Layer_7">
</g>
<g id="Layer_8">
</g>
<g id="Layer_9">
</g>
<g id="Layer_10">
</g>
<g id="Layer_11">
</g>
</svg>
