<?xml version="1.0" encoding="utf-8"?>
<!-- Generator: Adobe Illustrator 17.1.0, SVG Export Plug-In . SVG Version: 6.00 Build 0)  -->
<!DOCTYPE svg PUBLIC "-//W3C//DTD SVG 1.1//EN" "http://www.w3.org/Graphics/SVG/1.1/DTD/svg11.dtd">
<svg version="1.1" xmlns="http://www.w3.org/2000/svg" xmlns:xlink="http://www.w3.org/1999/xlink" x="0px" y="0px"
	 viewBox="0 0 469.477 476.976" enable-background="new 0 0 469.477 476.976" xml:space="preserve">
<g id="Layer_1">
</g>
<g id="Layer_2">
</g>
<g id="Layer_3">
</g>
<g id="Layer_4">
</g>
<g id="Layer_5">
</g>
<g id="Layer_6">
</g>
<g id="Layer_7">
</g>
<g id="Layer_8">
</g>
<g id="Layer_9">
	<path fill="#FFFFFF" d="M234.793,11.719c-125.086,0-226.488,101.402-226.488,226.489s101.402,226.489,226.488,226.489
		c125.086,0,226.489-101.403,226.489-226.489S359.879,11.719,234.793,11.719z M156.251,337.147h-31.033
		c-12.387,0-22.428-10.041-22.428-22.427V259.29c0-12.386,10.041-22.427,22.428-22.427h31.033V337.147z M234.793,134.732
		c-49.079-0.1-91.822,30.731-94.638,84.828h-19.5c2.518-66.142,48.598-117.586,114.139-117.586
		c65.541,0,111.621,51.444,114.139,117.586h-19.5C326.614,165.463,283.871,134.632,234.793,134.732z M366.795,314.719
		c0,12.386-10.041,22.427-22.428,22.427h-31.033V236.862h31.033c12.387,0,22.428,10.041,22.428,22.427V314.719z"/>
</g>
<g id="Layer_10">
</g>
<g id="Layer_11">
</g>
</svg>
