<?xml version="1.0" encoding="utf-8"?>
<!-- Generator: Adobe Illustrator 17.1.0, SVG Export Plug-In . SVG Version: 6.00 Build 0)  -->
<!DOCTYPE svg PUBLIC "-//W3C//DTD SVG 1.1//EN" "http://www.w3.org/Graphics/SVG/1.1/DTD/svg11.dtd">
<svg version="1.1" xmlns="http://www.w3.org/2000/svg" xmlns:xlink="http://www.w3.org/1999/xlink" x="0px" y="0px"
	 viewBox="0 0 469.477 475.476" enable-background="new 0 0 469.477 475.476" xml:space="preserve">
<g id="Layer_1">
</g>
<g id="Layer_2">
</g>
<g id="Layer_3">
	<g>
		<path fill="#FFFFFF" d="M236.068,10.719c-125.086,0-226.489,101.402-226.489,226.489s101.402,226.489,226.489,226.489
			c125.086,0,226.489-101.403,226.489-226.489S361.154,10.719,236.068,10.719z M319.262,336.657H152.874
			c-10.688,0-19.352-8.664-19.352-19.352l14.343-135.551c0-10.688,8.664-19.352,19.352-19.352h25.841
			c0.405-20.435,9.268-64.407,28.534-64.407h28.952c19.266,0,28.129,43.972,28.534,64.407h25.841
			c10.688,0,19.352,8.664,19.352,19.352l14.343,135.551C338.614,327.993,329.95,336.657,319.262,336.657z"/>
		<path fill="#FFFFFF" d="M248.44,109.262h-24.744c-14.822,0-19.667,33.565-20.622,53.14h65.989
			C268.107,142.827,263.262,109.262,248.44,109.262z"/>
	</g>
</g>
<g id="Layer_4">
</g>
<g id="Layer_5">
</g>
<g id="Layer_6">
</g>
<g id="Layer_7">
</g>
<g id="Layer_8">
</g>
<g id="Layer_9">
</g>
<g id="Layer_10">
</g>
<g id="Layer_11">
</g>
</svg>
