<?xml version="1.0" encoding="utf-8"?>
<!-- Generator: Adobe Illustrator 17.1.0, SVG Export Plug-In . SVG Version: 6.00 Build 0)  -->
<!DOCTYPE svg PUBLIC "-//W3C//DTD SVG 1.1//EN" "http://www.w3.org/Graphics/SVG/1.1/DTD/svg11.dtd">
<svg version="1.1" xmlns="http://www.w3.org/2000/svg" xmlns:xlink="http://www.w3.org/1999/xlink" x="0px" y="0px"
	 viewBox="0 0 466.477 466.477" enable-background="new 0 0 466.477 466.477" xml:space="preserve">
<g id="background">
</g>
<g id="cake">
</g>
<g id="Layer_3">
</g>
<g id="Layer_4">
</g>
<g id="Layer_5">
</g>
<g id="Layer_6">
</g>
<g id="Layer_7">
</g>
<g id="Layer_8">
</g>
<g id="Layer_9">
</g>
<g id="Layer_10">
</g>
<g id="Layer_11">
</g>
<g id="Layer_12">
</g>
<g id="Layer_13">
	<path fill="#FFFFFF" d="M235.988,7C110.902,7,9.5,108.402,9.5,233.489c0,125.086,101.402,226.489,226.488,226.489
		c125.086,0,226.489-101.402,226.489-226.489C462.477,108.402,361.074,7,235.988,7z M167.855,168.046l55.438-56.647l-0.032,54.867
		l0.032,57.546h-57.332h-54.753L167.855,168.046z M223.292,353.287l-55.438-56.647l-56.647-55.764h54.773l57.312-0.002l0.028,57.533
		L223.292,353.287z M241.435,111.291l55.663,56.768l56.647,55.8l-54.7-0.048h-57.61l0.016-57.639L241.435,111.291z M297.562,296.345
		l-56.127,56.647v-54.916v-57.201h57.991h54.783L297.562,296.345z"/>
</g>
<g id="Layer_14">
</g>
<g id="Layer_15">
</g>
</svg>
