<?xml version="1.0" encoding="utf-8"?>
<!-- Generator: Adobe Illustrator 17.1.0, SVG Export Plug-In . SVG Version: 6.00 Build 0)  -->
<!DOCTYPE svg PUBLIC "-//W3C//DTD SVG 1.1//EN" "http://www.w3.org/Graphics/SVG/1.1/DTD/svg11.dtd">
<svg version="1.1" xmlns="http://www.w3.org/2000/svg" xmlns:xlink="http://www.w3.org/1999/xlink" x="0px" y="0px"
	 viewBox="0 0 466.477 466.477" enable-background="new 0 0 466.477 466.477" xml:space="preserve">
<g id="background">
</g>
<g id="cake">
</g>
<g id="Layer_3">
</g>
<g id="Layer_4">
</g>
<g id="Layer_5">
</g>
<g id="Layer_6">
</g>
<g id="Layer_7">
</g>
<g id="Layer_8">
	<g>
		<path fill="#FFFFFF" d="M353.013,169.32v-6.621v-4.212v-4.212v-8.836l-47.568,8.836l-22.685,4.212l-18.869,3.504v0.708h-0.008
			v6.621v146.242l89.13-16.552V169.32z M323.05,169.32l16.536-4.608l1.28,4.608l0.986,3.504l-64.963,18.119l-2.274-8.112
			L323.05,169.32z M339.586,186.218l2.274,8.112l-64.971,18.111l-2.274-8.112L339.586,186.218z M339.586,207.707l2.258,8.112
			l-65.089,18.111l-2.257-8.112L339.586,207.707z M339.586,229.212l2.258,8.112l-65.089,18.111l-2.257-8.112L339.586,229.212z
			 M275.188,300.197l-2.207-8.129l66.631-18.111l2.207,8.129L275.188,300.197z M275.963,277.479l-2.207-8.129l66.622-18.111
			l2.216,8.129L275.963,277.479z"/>
		<polygon fill="#FFFFFF" points="361.437,169.329 361.437,306.043 305.445,316.43 368.967,316.43 368.967,169.32 368.967,162.708 
			361.437,162.708 		"/>
		<path fill="#FFFFFF" d="M188.753,263.807c0-23.14-16.519-42.489-38.386-46.877c-1.381-0.27-2.78-0.48-4.212-0.64
			c-1.381-0.143-2.796-0.211-4.212-0.244c-0.328-0.008-0.674-0.051-1.002-0.051c-2.594,0-5.13,0.261-7.615,0.665
			c-22.752,3.673-40.206,23.384-40.206,47.164c0,23.78,17.454,43.482,40.206,47.155c2.485,0.413,5.012,0.674,7.615,0.674
			c0.329,0,0.674-0.05,1.002-0.093c1.415-0.034,2.83-0.084,4.212-0.236c1.432-0.152,2.831-0.379,4.212-0.657
			C172.235,306.288,188.753,286.939,188.753,263.807z M150.367,274.826c-1.247,1.07-2.645,1.954-4.212,2.552
			c-1.314,0.514-2.729,0.8-4.212,0.901c-0.328,0.017-0.657,0.101-1.002,0.101c-2.813,0-5.399-0.842-7.615-2.207
			c-4.161-2.569-6.941-7.126-6.941-12.366c0-5.248,2.78-9.805,6.941-12.374c2.224-1.373,4.802-2.215,7.615-2.215
			c0.345,0,0.674,0.093,1.002,0.109c1.483,0.109,2.898,0.396,4.212,0.893c1.567,0.598,2.965,1.483,4.212,2.552
			c3.125,2.679,5.147,6.596,5.147,11.035C155.514,268.221,153.492,272.147,150.367,274.826z"/>
		<path fill="#FFFFFF" d="M233.238,6.75C108.152,6.75,6.75,108.152,6.75,233.238s101.402,226.489,226.489,226.489
			s226.489-101.402,226.489-226.489S358.325,6.75,233.238,6.75z M140.924,324.263c-2.569,0-5.105-0.202-7.606-0.522
			c-29.744-3.765-52.841-29.171-52.841-59.917c0-30.746,23.097-56.16,52.841-59.917c2.502-0.328,5.012-0.531,7.606-0.531
			c0.329,0,0.674,0.051,1.002,0.051c1.415,0.025,2.83,0.084,4.212,0.202c1.432,0.118,2.83,0.328,4.212,0.548
			c28.859,4.549,51.022,29.525,51.022,59.647c0,22.558-12.408,42.219-30.755,52.605c-2.923,1.659-6.014,3.049-9.241,4.195
			c-6.107,2.199-12.61,3.471-19.45,3.588C141.598,324.213,141.253,324.263,140.924,324.263z M386,331.171H150.637
			c7.228-1.036,14.093-3.201,20.385-6.318c2.578-1.255,5.063-2.637,7.43-4.212c2.005-1.306,3.917-2.704,5.745-4.212h71.263V169.32
			v-6.621h-12.4v6.621v47.231l-13.545-9.477l-13.52,9.477V169.32v-6.621h-65.628v6.621v27.107c-1.381-0.211-2.797-0.362-4.212-0.472
			c-1.398-0.093-2.796-0.185-4.212-0.211c-0.328,0-0.674-0.051-1.002-0.051c-2.578,0-5.113,0.185-7.615,0.463V169.32h8.617v-15.044
			H259.25l102.186-18.97v18.97h15.954v15.044H386V331.171z"/>
	</g>
</g>
<g id="Layer_9">
</g>
<g id="Layer_10">
</g>
</svg>
