<?xml version="1.0" encoding="utf-8"?>
<!-- Generator: Adobe Illustrator 17.1.0, SVG Export Plug-In . SVG Version: 6.00 Build 0)  -->
<!DOCTYPE svg PUBLIC "-//W3C//DTD SVG 1.1//EN" "http://www.w3.org/Graphics/SVG/1.1/DTD/svg11.dtd">
<svg version="1.1" xmlns="http://www.w3.org/2000/svg" xmlns:xlink="http://www.w3.org/1999/xlink" x="0px" y="0px"
	 viewBox="0 0 469.477 473.976" enable-background="new 0 0 469.477 473.976" xml:space="preserve">
<g id="Layer_1">
</g>
<g id="Layer_2">
</g>
<g id="Layer_3">
</g>
<g id="Layer_4">
</g>
<g id="Layer_5">
</g>
<g id="Layer_6">
</g>
<g id="Layer_7">
</g>
<g id="Layer_8">
</g>
<g id="Layer_9">
</g>
<g id="Layer_10">
	<g>
		<path fill="#FFFFFF" d="M304.442,190.884h-141.19c-2.089,0-3.782,1.693-3.782,3.782v126.062c0,2.089,1.693,3.782,3.782,3.782
			h141.19c2.089,0,3.782-1.693,3.782-3.782V194.666C308.223,192.578,306.531,190.884,304.442,190.884z M280.144,265.098
			l-9.555,9.554l-39.039,39.039l-39.039-39.039l-9.555-9.554c-10.78-10.781-10.78-28.259,0-39.039
			c10.781-10.78,28.259-10.78,39.04,0l9.554,9.554l9.555-9.554c10.78-10.78,28.258-10.78,39.039,0
			C290.924,236.84,290.924,254.318,280.144,265.098z"/>
		<path fill="#FFFFFF" d="M234.746,10.36C109.659,10.36,8.257,111.762,8.257,236.849c0,125.086,101.402,226.489,226.489,226.489
			s226.489-101.403,226.489-226.489C461.235,111.762,359.832,10.36,234.746,10.36z M279.241,111.833
			c0-5.897,4.78-10.678,10.678-10.678h0.216c5.897,0,10.678,4.781,10.678,10.678v25.383c0,5.897-4.781,10.678-10.678,10.678h-0.216
			c-5.897,0-10.678-4.781-10.678-10.678V111.833z M241.227,111.833c0-5.897,4.781-10.678,10.678-10.678h0.215
			c5.897,0,10.678,4.781,10.678,10.678v25.383c0,5.897-4.781,10.678-10.678,10.678h-0.215c-5.897,0-10.678-4.781-10.678-10.678
			V111.833z M203.497,111.833c0-5.897,4.781-10.678,10.678-10.678h0.216c5.897,0,10.678,4.781,10.678,10.678v25.383
			c0,5.897-4.781,10.678-10.678,10.678h-0.216c-5.897,0-10.678-4.781-10.678-10.678V111.833z M165.883,111.833
			c0-5.897,4.781-10.678,10.678-10.678h0.216c5.897,0,10.678,4.781,10.678,10.678v25.383c0,5.897-4.781,10.678-10.678,10.678h-0.216
			c-5.897,0-10.678-4.781-10.678-10.678V111.833z M340.805,333.54c0,3.204-2.414,5.801-5.393,5.801H134.078
			c-2.979,0-5.393-2.597-5.393-5.801V140.158c0-3.204,2.415-5.801,5.393-5.801h25.392c0,16.497,7.731,29.87,17.267,29.87
			s17.267-13.373,17.267-29.87h3.012c0,16.497,7.731,29.87,17.267,29.87s17.267-13.373,17.267-29.87h3.195
			c0,16.497,7.731,29.87,17.267,29.87c9.537,0,17.267-13.373,17.267-29.87h3.48c0,16.497,7.731,29.87,17.267,29.87
			s17.267-13.373,17.267-29.87h28.119c2.979,0,5.393,2.597,5.393,5.801V333.54z"/>
	</g>
</g>
<g id="Layer_11">
</g>
</svg>
