<?xml version="1.0" encoding="utf-8"?>
<!-- Generator: Adobe Illustrator 17.1.0, SVG Export Plug-In . SVG Version: 6.00 Build 0)  -->
<!DOCTYPE svg PUBLIC "-//W3C//DTD SVG 1.1//EN" "http://www.w3.org/Graphics/SVG/1.1/DTD/svg11.dtd">
<svg version="1.1" xmlns="http://www.w3.org/2000/svg" xmlns:xlink="http://www.w3.org/1999/xlink" x="0px" y="0px"
	 viewBox="0 0 467.977 466.477" enable-background="new 0 0 467.977 466.477" xml:space="preserve">
<g id="background">
</g>
<g id="cake">
	<path fill="#FFFFFF" d="M233.472,7.101C108.385,7.101,6.983,108.504,6.983,233.59s101.402,226.489,226.489,226.489
		S459.96,358.676,459.96,233.59S358.558,7.101,233.472,7.101z M274.22,123.149h0.387L279,139.906c0,2.437-1.976,4.413-4.413,4.413
		h-0.089c-2.437,0-4.413-1.976-4.413-4.413L274.22,123.149z M266.811,151.873c0-0.816,3.391-1.478,7.573-1.478h0.316
		c4.182,0,7.573,0.662,7.573,1.478v62.126c0,0.816-3.391,1.478-7.573,1.478h-0.316c-4.183,0-7.573-0.662-7.573-1.478V151.873z
		 M246.901,123.149h0.387l4.393,16.757c0,2.437-1.976,4.413-4.413,4.413h-0.089c-2.437,0-4.413-1.976-4.413-4.413L246.901,123.149z
		 M239.493,151.873c0-0.816,3.391-1.478,7.573-1.478h0.316c4.183,0,7.573,0.662,7.573,1.478v62.126c0,0.816-3.391,1.478-7.573,1.478
		h-0.316c-4.182,0-7.573-0.662-7.573-1.478V151.873z M219.582,123.149h0.387l4.393,16.757c0,2.437-1.976,4.413-4.413,4.413h-0.089
		c-2.437,0-4.413-1.976-4.413-4.413L219.582,123.149z M212.174,151.873c0-0.816,3.391-1.478,7.573-1.478h0.316
		c4.182,0,7.573,0.662,7.573,1.478v62.126c0,0.816-3.391,1.478-7.573,1.478h-0.316c-4.183,0-7.573-0.662-7.573-1.478V151.873z
		 M192.263,123.149h0.387l4.393,16.757c0,2.437-1.976,4.413-4.413,4.413h-0.089c-2.437,0-4.413-1.976-4.413-4.413L192.263,123.149z
		 M184.855,151.873c0-0.816,3.391-1.478,7.573-1.478h0.316c4.183,0,7.573,0.662,7.573,1.478v62.126c0,0.816-3.391,1.478-7.573,1.478
		h-0.316c-4.182,0-7.573-0.662-7.573-1.478V151.873z M136.691,323.45v-82.564c0-12.678,10.278-22.956,22.956-22.956h154.351
		c12.678,0,22.956,10.278,22.956,22.956v82.564c0,12.678,1.611,22.956-11.067,22.956H148.673
		C135.995,346.405,136.691,336.128,136.691,323.45z M354.298,358.711c0,3.968-2.457,7.185-5.487,7.185H118.133
		c-3.03,0-5.487-3.217-5.487-7.185v-0.299c0-3.968,2.457-7.185,5.487-7.185h230.678c3.03,0,5.487,3.217,5.487,7.185V358.711z"/>
</g>
<g id="Layer_3">
</g>
<g id="Layer_4">
</g>
<g id="Layer_5">
</g>
<g id="Layer_6">
</g>
<g id="Layer_7">
</g>
</svg>
