<?xml version="1.0" encoding="utf-8"?>
<!-- Generator: Adobe Illustrator 17.1.0, SVG Export Plug-In . SVG Version: 6.00 Build 0)  -->
<!DOCTYPE svg PUBLIC "-//W3C//DTD SVG 1.1//EN" "http://www.w3.org/Graphics/SVG/1.1/DTD/svg11.dtd">
<svg version="1.1" xmlns="http://www.w3.org/2000/svg" xmlns:xlink="http://www.w3.org/1999/xlink" x="0px" y="0px"
	 viewBox="0 0 467.977 466.477" enable-background="new 0 0 467.977 466.477" xml:space="preserve">
<g id="background">
</g>
<g id="cake">
	<circle cx="233.472" cy="233.59" r="226.489"/>
	<g>
		<path fill="#FFFFFF" d="M336.953,323.45c0,12.678,1.611,22.956-11.067,22.956H148.673c-12.678,0-11.982-10.278-11.982-22.956
			v-82.564c0-12.678,10.278-22.956,22.956-22.956h154.351c12.678,0,22.956,10.278,22.956,22.956V323.45z"/>
		<path fill="#FFFFFF" d="M192.65,123.149l4.393,16.757c0,2.437-1.976,4.413-4.413,4.413h-0.089c-2.437,0-4.413-1.976-4.413-4.413
			l4.135-16.757"/>
		<path fill="#FFFFFF" d="M219.969,123.149l4.393,16.757c0,2.437-1.976,4.413-4.413,4.413h-0.089c-2.437,0-4.413-1.976-4.413-4.413
			l4.135-16.757"/>
		<path fill="#FFFFFF" d="M247.288,123.149l4.393,16.757c0,2.437-1.976,4.413-4.413,4.413h-0.089c-2.437,0-4.413-1.976-4.413-4.413
			l4.135-16.757"/>
		<path fill="#FFFFFF" d="M274.607,123.149L279,139.906c0,2.437-1.976,4.413-4.413,4.413h-0.089c-2.437,0-4.413-1.976-4.413-4.413
			l4.135-16.757"/>
		<path fill="#FFFFFF" d="M354.298,358.711c0,3.968-2.457,7.185-5.487,7.185H118.132c-3.03,0-5.487-3.217-5.487-7.185v-0.299
			c0-3.968,2.457-7.185,5.487-7.185h230.678c3.03,0,5.487,3.217,5.487,7.185V358.711z"/>
		<path fill="#FFFFFF" d="M192.744,150.395c4.183,0,7.573,0.662,7.573,1.478v62.126c0,0.816-3.391,1.478-7.573,1.478h-0.316
			c-4.183,0-7.573-0.662-7.573-1.478v-62.126c0-0.816,3.391-1.478,7.573-1.478H192.744z"/>
		<path fill="#FFFFFF" d="M220.062,150.395c4.183,0,7.573,0.662,7.573,1.478v62.126c0,0.816-3.391,1.478-7.573,1.478h-0.316
			c-4.183,0-7.573-0.662-7.573-1.478v-62.126c0-0.816,3.391-1.478,7.573-1.478H220.062z"/>
		<path fill="#FFFFFF" d="M247.381,150.395c4.183,0,7.573,0.662,7.573,1.478v62.126c0,0.816-3.391,1.478-7.573,1.478h-0.316
			c-4.183,0-7.573-0.662-7.573-1.478v-62.126c0-0.816,3.391-1.478,7.573-1.478H247.381z"/>
		<path fill="#FFFFFF" d="M274.7,150.395c4.183,0,7.573,0.662,7.573,1.478v62.126c0,0.816-3.391,1.478-7.573,1.478h-0.316
			c-4.183,0-7.573-0.662-7.573-1.478v-62.126c0-0.816,3.391-1.478,7.573-1.478H274.7z"/>
	</g>
</g>
<g id="Layer_3">
</g>
<g id="Layer_4">
</g>
<g id="Layer_5">
</g>
<g id="Layer_6">
</g>
<g id="Layer_7">
</g>
</svg>
