<?xml version="1.0" encoding="utf-8"?>
<!-- Generator: Adobe Illustrator 17.1.0, SVG Export Plug-In . SVG Version: 6.00 Build 0)  -->
<!DOCTYPE svg PUBLIC "-//W3C//DTD SVG 1.1//EN" "http://www.w3.org/Graphics/SVG/1.1/DTD/svg11.dtd">
<svg version="1.1" xmlns="http://www.w3.org/2000/svg" xmlns:xlink="http://www.w3.org/1999/xlink" x="0px" y="0px"
	 viewBox="0 0 468 469.5" enable-background="new 0 0 468 469.5" xml:space="preserve">
<g id="Layer_1">
</g>
<g id="Layer_2">
</g>
<g id="Layer_3">
</g>
<g id="Layer_4">
</g>
<g id="Layer_5">
</g>
<g id="Layer_6">
	<path fill="#FFFFFF" d="M236.5,11.5C111.4,11.5,10,112.9,10,238s101.4,226.5,226.5,226.5C361.6,464.5,463,363.1,463,238
		S361.6,11.5,236.5,11.5z M168.5,118.2c11.5,0,20.8,9.3,20.8,20.8c0,11.5-9.3,20.8-20.8,20.8c-11.5,0-20.8-9.3-20.8-20.8
		S157.1,118.2,168.5,118.2z M214.9,215c-1.3,0.6-2.6,1.1-4.1,1.1c-5,0-9.1-4.1-9.1-9.1c0,0,0-0.1,0-0.1v-16.1h-5.9l0,154.8
		c0,6.7-5.5,12.2-12.2,12.2c-6.7,0-12.1-5.4-12.2-12.1l-0.1-0.1v-99.8h-5.5v99.7c0,6.8-5.5,12.3-12.3,12.3
		c-6.8,0-12.3-5.5-12.3-12.3l0.1-154.4h-5.7v49h0c0,0.1,0,0.3,0,0.4c0,5-4.1,9.1-9.1,9.1c-5,0-9.1-4.1-9.1-9.1c0-0.1,0-0.3,0-0.4h0
		v-53c0,0-1.1-22.7,29.8-23.3h11.4l10,16.4l10-16.4h11.9c0,0,27.4-0.4,29.4,23.3v3.1l10.7-7.3l1.2-0.8c0,0,0.1-0.1,0.1-0.1
		c1.9-1.9,4.5-2.8,7-2.7c1.8,0.1,3.5,0.8,5,1.8l48.2-32.7l2.2,3.2l-47.8,32.4c1.9,3.5,1.4,7.9-1.6,10.9c0,0,0,0,0,0.1h0l-5.9,4
		l-8.3,5.5L214.9,215L214.9,215z M355.5,229.8c0,2.7-2.2,4.9-4.9,4.9H220.4c-2.7,0-4.9-2.2-4.9-4.9v-7.6l9.9-6.6v9.2h120.3v-85.8
		H225.3v36.1c-0.4,0.3-0.9,0.6-1.3,1l-1.4,1c-1.7-4.4-4.2-7.8-7.2-10.6v-32.4c0-2.7,2.2-4.9,4.9-4.9h130.2c2.7,0,4.9,2.2,4.9,4.9
		V229.8z"/>
</g>
</svg>
