<?xml version="1.0" encoding="utf-8"?>
<!-- Generator: Adobe Illustrator 17.1.0, SVG Export Plug-In . SVG Version: 6.00 Build 0)  -->
<!DOCTYPE svg PUBLIC "-//W3C//DTD SVG 1.1//EN" "http://www.w3.org/Graphics/SVG/1.1/DTD/svg11.dtd">
<svg version="1.1" xmlns="http://www.w3.org/2000/svg" xmlns:xlink="http://www.w3.org/1999/xlink" x="0px" y="0px"
	 viewBox="0 0 472.5 468" enable-background="new 0 0 472.5 468" xml:space="preserve">
<g id="Layer_1">
</g>
<g id="Layer_2">
	<path fill="#FFFFFF" d="M235.4,10.7C110.3,10.7,8.9,112.1,8.9,237.2s101.4,226.5,226.5,226.5c125.1,0,226.5-101.4,226.5-226.5
		S360.4,10.7,235.4,10.7z M243.1,207.5v132c42.2,0.5,75.3,5.2,75.3,11c0,6.1-37.2,11-83,11c-45.8,0-83-4.9-83-11
		c0-5.7,33.1-10.4,75.3-11v-132c0-0.4,0.2-0.8,0.5-1.2l-108.5-87.5h231.6l-108.5,87.5C242.9,206.8,243.1,207.1,243.1,207.5z"/>
</g>
<g id="Layer_3">
</g>
<g id="Layer_4">
</g>
<g id="Layer_5">
</g>
<g id="Layer_6">
</g>
</svg>
