<?xml version="1.0" encoding="utf-8"?>
<!-- Generator: Adobe Illustrator 17.1.0, SVG Export Plug-In . SVG Version: 6.00 Build 0)  -->
<!DOCTYPE svg PUBLIC "-//W3C//DTD SVG 1.1//EN" "http://www.w3.org/Graphics/SVG/1.1/DTD/svg11.dtd">
<svg version="1.1" xmlns="http://www.w3.org/2000/svg" xmlns:xlink="http://www.w3.org/1999/xlink" x="0px" y="0px"
	 viewBox="0 0 466.5 471" enable-background="new 0 0 466.5 471" xml:space="preserve">
<g id="Layer_1">
	<path fill="#FFFFFF" d="M235.2,14.7C110.2,14.7,8.7,116.1,8.7,241.2s101.4,226.5,226.5,226.5c125.1,0,226.5-101.4,226.5-226.5
		S360.3,14.7,235.2,14.7z M339.5,137c10,0,18.2,8.1,18.2,18.2c0,10-8.1,18.2-18.2,18.2c-10,0-18.2-8.1-18.2-18.2
		C321.4,145.1,329.5,137,339.5,137z M239.3,123.4c10,0,18.2,8.1,18.2,18.2c0,10-8.1,18.2-18.2,18.2s-18.2-8.1-18.2-18.2
		C221.1,131.6,229.2,123.4,239.3,123.4z M169,235.1h39.4c-0.1-0.8-0.1-1.6-0.1-2.5c0-15.7,0-31.4,0-47.1c0-16,15-22.3,26.9-19
		c3.8-1.1,7.9-1.1,11.7-0.2c11.8-2.8,26.3,3.7,26.3,19.5c0,15.7,0,31.4,0,47.1c0,0.7,0,1.5-0.1,2.2h36.4v19.2H169V235.1z M130.9,137
		c10,0,18.2,8.1,18.2,18.2c0,10-8.1,18.2-18.2,18.2c-10,0-18.2-8.1-18.2-18.2C112.8,145.1,120.9,137,130.9,137z M196.4,347.3
		c0,15.7-24.3,15.7-24.3,0c0-15.5,0-30.9,0-46.4c-14.8-4.9-29.7-9.7-44.8-14c-9-1.4-17-8.1-17-19.8c0-21.5,0-43,0-64.5
		c0-26.7,41.4-26.4,41.4,0.3c0,21.5,0,43,0,64.5c0,0.5,0,0.9-0.1,1.4c12,3.7,23.9,7.7,35.9,11.6c4.8,1.6,7.3,5.1,8.1,9
		c0.5,1.3,0.8,2.7,0.8,4.4C196.4,311.6,196.4,329.4,196.4,347.3z M236.3,325.3c0,15.7-24.3,15.7-24.3,0c0-17.8,0-35.7,0-53.5
		c0-15.7,24.3-15.7,24.3,0C236.3,289.7,236.3,307.5,236.3,325.3z M265.3,325.3c0,15.7-24.3,15.7-24.3,0c0-17.8,0-35.7,0-53.5
		c0-15.7,24.3-15.7,24.3,0C265.3,289.7,265.3,307.5,265.3,325.3z M360.2,267.3c0,3.7-0.8,6.9-2.2,9.6c-0.8,3.8-3.4,7.2-8.3,8.5
		c-16.1,4.5-32,9.6-47.9,14.9c0,15.5,0,30.9,0,46.4c0,15.7-24.3,15.7-24.3,0c0-17.8,0-35.7,0-53.5c0-1.7,0.3-3.1,0.8-4.4
		c0.8-3.9,3.4-7.4,8.1-9c10.8-3.6,21.6-7.2,32.5-10.6c-0.1-0.7-0.1-1.4-0.1-2.2c0-21.5,0-43,0-64.5c0-26.7,41.4-26.4,41.4,0.3
		C360.2,224.3,360.2,245.8,360.2,267.3z"/>
</g>
<g id="Layer_2">
</g>
<g id="Layer_3">
</g>
<g id="Layer_4">
</g>
<g id="Layer_5">
</g>
<g id="Layer_6">
</g>
</svg>
