<?xml version="1.0" encoding="utf-8"?>
<!-- Generator: Adobe Illustrator 17.1.0, SVG Export Plug-In . SVG Version: 6.00 Build 0)  -->
<!DOCTYPE svg PUBLIC "-//W3C//DTD SVG 1.1//EN" "http://www.w3.org/Graphics/SVG/1.1/DTD/svg11.dtd">
<svg version="1.1" xmlns="http://www.w3.org/2000/svg" xmlns:xlink="http://www.w3.org/1999/xlink" x="0px" y="0px"
	 viewBox="0 0 468 468" enable-background="new 0 0 468 468" xml:space="preserve">
<g id="Layer_1">
</g>
<g id="Layer_2">
</g>
<g id="Layer_3">
	<path fill="#FFFFFF" d="M237,12.7c-125.1,0-226.5,101.4-226.5,226.5S111.9,465.7,237,465.7s226.5-101.4,226.5-226.5
		S362.1,12.7,237,12.7z M208.6,327.8c-6.5,6.2-19.9,9.3-25.6,2.7c-5.8-6.6-1.3-12.4,0.8-17.8c-5.4,1.7-13.7,4.9-18.7-1.2
		c-5-6.1-1-11.2,0.4-16.2c-5.1,1.2-12.3,5.1-17.5-1.4c-5.2-6.6-1-11.2,0.4-16.2c-5.1,1.2-11.7,5.2-17.5-1.4
		c-5.8-6.6-1.6-17.9,4.8-24.1c6.5-6.2,16.4-6.5,22.1-0.6c3.7,3.8,4.4,9.1,3,14.1c5.1-1.2,10.4-0.2,14,3.6c3.7,3.8,4.4,9.1,3,14.1
		c5.1-1.2,10.4-0.2,14,3.6c4,4.1,4.8,10.2,2.6,15.7c5.4-1.7,11.3-0.8,15.2,3.3C215.7,311.7,215.1,321.5,208.6,327.8z M313.8,277.6
		c-4.5,4.5-11.8,4.5-16.3,0c0,0,0-0.1-0.1-0.1h0c-19.1-19.1-19.2-19-20.4-17.8c-1.2,1.2-2,1.5,17.5,21c0.2,0.2,0.1,0.5,0.2,0.7
		c3.8,4.5,3.7,11.2-0.6,15.4c-4.4,4.4-11.3,4.4-15.8,0.3c-0.1,0-0.1,0-0.2,0c-15.4-15.4-22.6-23.3-23.9-21.9
		c-1.2,1.2,0.6,4.1,16,19.6c0.3,0.3,0.5,0.6,0.8,1c0.2,0.2,0.5,0.3,0.7,0.5c4.5,4.5,4.5,11.8,0,16.3c-4.5,4.5-11.8,4.5-16.3,0
		c-0.4-0.4-0.5-0.9-0.8-1.3c-0.2-0.1-0.5-0.1-0.6-0.3c-17-17-19.2-20.3-20.7-18.8c-1.5,1.5-0.7,2.6,14.4,17.8c0,0.1-0.1,0.1-0.1,0.1
		c0.2,0.1,0.4,0.2,0.5,0.3c4.5,4.5,4.5,11.8,0,16.3c-4.5,4.5-11.8,4.5-16.3,0c-2.3-2.3-6-6.4-6.1-6.5c0,0,0,0,0,0
		c1.3-8.2-0.8-16.7-6.9-22.9c-3.1-3.2-7-5.5-11.2-6.7c-1.1-4.5-3.3-8.7-6.6-12.2c-3-3.1-6.7-5.3-10.7-6.6c-1.1-4.2-3.2-8-6.3-11.1
		c-3-3.1-6.7-5.3-10.8-6.6c-1.1-4.2-3.2-8-6.3-11.1c-10.1-10.4-28.6-10.3-39.7,0.3c-3.4,3.3-5.8,7.3-7.4,11.6
		c-6.7-2.7-14.2-4.9-14.2-4.9V159l26.2,9.1c13.6,5.5,23.1-0.6,23.1-0.6s33.6-22,49.6-22c16.1,0,23.4,9.3,23.4,9.3
		s-24.1,12.8-34.5,20.1c-7.4,4.6-12.4,12.8-12.4,22.2c0,14.5,11.8,26.2,26.3,26.2c1.4,0,7.9-1.2,15.4-5.1
		c6.8-3.2,15.9-7.4,22.9-10.5c10-4.4,17.7,3.2,17.7,3.2c25.3,25.4,3.2,3.2,50.3,50.3c0.1,0.1,0.1,0.1,0.2,0.1
		C318.3,265.8,318.3,273.1,313.8,277.6z M368.2,247.3c0,0-17,3.4-20.5,3.8c-3.5,0.4-14.5,4-22.4-3.7c-12.3-11.8-55.9-55.1-55.9-55.1
		s-7.5-7.4-19.6-1c-11.1,5.8-27.5,14.4-34.4,17.7c-2.4,1.7-5.4,2.7-8.6,2.7c-8.3,0-15.1-6.8-15.1-15.1c0-6.5,4.1-11.9,9.8-14.1
		c15.6-9.5,48.6-28,62.3-35.3c8.3-4.4,14.4-4.8,25.8,4.8c14.1,11.9,26.7,22.7,26.7,22.7s5.9,3,10.6,2c15.3-3.1,41.2-9,41.2-9V247.3z
		"/>
</g>
<g id="Layer_4">
</g>
<g id="Layer_5">
</g>
<g id="Layer_6">
</g>
</svg>
