<?xml version="1.0" encoding="utf-8"?>
<!-- Generator: Adobe Illustrator 17.1.0, SVG Export Plug-In . SVG Version: 6.00 Build 0)  -->
<!DOCTYPE svg PUBLIC "-//W3C//DTD SVG 1.1//EN" "http://www.w3.org/Graphics/SVG/1.1/DTD/svg11.dtd">
<svg version="1.1" xmlns="http://www.w3.org/2000/svg" xmlns:xlink="http://www.w3.org/1999/xlink" x="0px" y="0px"
	 viewBox="0 0 466.477 466.477" enable-background="new 0 0 466.477 466.477" xml:space="preserve">
<g id="background">
</g>
<g id="cake">
</g>
<g id="Layer_3">
	<circle cx="232.934" cy="233.59" r="226.489"/>
	<g>
		<path fill="#FFFFFF" d="M302.342,188.821c0,4.984-1.403,9.024-3.133,9.024H167.493c-1.73,0-3.133-4.04-3.133-9.024v-0.376
			c0-4.984,1.403-9.024,3.133-9.024h131.715c1.73,0,3.133,4.04,3.133,9.024V188.821z"/>
		<path fill="#FFFFFF" d="M233.543,131.962c5.081,0,9.2,2.29,9.2,5.115v215.04c0,2.825-4.119,5.115-9.2,5.115h-0.383
			c-5.081,0-9.2-2.29-9.2-5.115v-215.04c0-2.825,4.119-5.115,9.2-5.115H233.543z"/>
		<g>
			<circle fill="#FFFFFF" cx="302.695" cy="190.019" r="10.626"/>
			<circle fill="#FFFFFF" cx="288.835" cy="179.393" r="10.626"/>
			<circle fill="#FFFFFF" cx="288.835" cy="199.259" r="10.626"/>
		</g>
		<g>
			<circle fill="#FFFFFF" cx="163.173" cy="189.326" r="10.626"/>
			<circle fill="#FFFFFF" cx="177.033" cy="178.7" r="10.626"/>
			<circle fill="#FFFFFF" cx="177.033" cy="198.566" r="10.626"/>
		</g>
		<g>
			<circle fill="#FFFFFF" cx="234.189" cy="357.232" r="10.626"/>
			<circle fill="#FFFFFF" cx="223.563" cy="343.372" r="10.626"/>
			<circle fill="#FFFFFF" cx="243.428" cy="343.372" r="10.626"/>
		</g>
		<g>
			<circle fill="#FFFFFF" cx="234.477" cy="132.242" r="10.626"/>
			<circle fill="#FFFFFF" cx="223.852" cy="146.102" r="10.626"/>
			<circle fill="#FFFFFF" cx="243.717" cy="146.102" r="10.626"/>
		</g>
	</g>
</g>
<g id="Layer_4">
</g>
<g id="Layer_5">
</g>
<g id="Layer_6">
</g>
<g id="Layer_7">
</g>
</svg>
