<?xml version="1.0" encoding="utf-8"?>
<!-- Generator: Adobe Illustrator 17.1.0, SVG Export Plug-In . SVG Version: 6.00 Build 0)  -->
<!DOCTYPE svg PUBLIC "-//W3C//DTD SVG 1.1//EN" "http://www.w3.org/Graphics/SVG/1.1/DTD/svg11.dtd">
<svg version="1.1" xmlns="http://www.w3.org/2000/svg" xmlns:xlink="http://www.w3.org/1999/xlink" x="0px" y="0px"
	 viewBox="0 0 466.477 466.477" enable-background="new 0 0 466.477 466.477" xml:space="preserve">
<g id="background">
</g>
<g id="cake">
</g>
<g id="Layer_3">
	<path fill="#FFFFFF" d="M232.934,7.101C107.848,7.101,6.445,108.504,6.445,233.59s101.402,226.489,226.489,226.489
		S459.423,358.676,459.423,233.59S358.02,7.101,232.934,7.101z M302.695,200.645c-1.145,0-2.245-0.186-3.278-0.521
		c-0.441,5.463-5.006,9.761-10.582,9.761c-5.868,0-10.626-4.757-10.626-10.626c0-0.481,0.043-0.95,0.105-1.414h-35.571v134.936
		c0.228-0.015,0.454-0.035,0.686-0.035c5.868,0,10.626,4.757,10.626,10.626c0,5.576-4.298,10.141-9.761,10.582
		c0.335,1.033,0.521,2.133,0.521,3.278c0,5.868-4.757,10.626-10.626,10.626s-10.626-4.757-10.626-10.626
		c0-1.138,0.183-2.232,0.514-3.26c-0.172,0.008-0.341,0.026-0.514,0.026c-5.868,0-10.626-4.757-10.626-10.626
		s4.757-10.626,10.626-10.626c0.134,0,0.264,0.015,0.397,0.02V197.845h-36.337c0.016,0.239,0.036,0.477,0.036,0.721
		c0,5.868-4.757,10.626-10.626,10.626c-5.576,0-10.141-4.298-10.582-9.761c-1.033,0.335-2.133,0.521-3.278,0.521
		c-5.868,0-10.626-4.757-10.626-10.626s4.757-10.626,10.626-10.626c1.138,0,2.232,0.183,3.26,0.514
		c-0.008-0.172-0.026-0.341-0.026-0.514c0-5.868,4.757-10.626,10.626-10.626s10.626,4.757,10.626,10.626
		c0,0.243-0.02,0.482-0.036,0.721h36.337v-22.699c-0.036,0-0.072,0.005-0.108,0.005c-5.868,0-10.626-4.757-10.626-10.626
		s4.757-10.626,10.626-10.626c0.174,0,0.343,0.018,0.514,0.026c-0.331-1.028-0.514-2.122-0.514-3.26
		c0-5.868,4.757-10.626,10.626-10.626s10.626,4.757,10.626,10.626c0,1.145-0.186,2.245-0.521,3.278
		c5.463,0.441,9.761,5.006,9.761,10.582c0,5.868-4.757,10.626-10.626,10.626c-0.329,0-0.653-0.02-0.974-0.049v22.742h35.468
		c0-0.009-0.001-0.018-0.001-0.028c0-5.868,4.757-10.626,10.626-10.626s10.626,4.757,10.626,10.626c0,0.022-0.003,0.042-0.003,0.064
		c0.196,0.044,0.387,0.143,0.571,0.287c0.853-0.221,1.743-0.351,2.666-0.351c5.868,0,10.626,4.757,10.626,10.626
		S308.563,200.645,302.695,200.645z"/>
</g>
<g id="Layer_4">
</g>
<g id="Layer_5">
</g>
<g id="Layer_6">
</g>
<g id="Layer_7">
</g>
</svg>
