<?xml version="1.0" encoding="utf-8"?>
<!-- Generator: Adobe Illustrator 17.1.0, SVG Export Plug-In . SVG Version: 6.00 Build 0)  -->
<!DOCTYPE svg PUBLIC "-//W3C//DTD SVG 1.1//EN" "http://www.w3.org/Graphics/SVG/1.1/DTD/svg11.dtd">
<svg version="1.1" xmlns="http://www.w3.org/2000/svg" xmlns:xlink="http://www.w3.org/1999/xlink" x="0px" y="0px"
	 viewBox="0 0 466.477 466.477" enable-background="new 0 0 466.477 466.477" xml:space="preserve">
<g id="background">
</g>
<g id="cake">
</g>
<g id="Layer_3">
</g>
<g id="Layer_4">
	<path fill="#FFFFFF" d="M233.315,7.101C108.229,7.101,6.826,108.504,6.826,233.59s101.402,226.489,226.489,226.489
		S459.804,358.676,459.804,233.59S358.401,7.101,233.315,7.101z M302.538,365.1H163.5l-34.907-107.089h209.444L302.538,365.1z
		 M329.405,252.311c-1.099,0-2.184-0.056-3.254-0.166v0.166h-92.404h-0.592h-92.676v-0.166c-1.07,0.109-2.155,0.166-3.254,0.166
		c-17.482,0-31.653-14.172-31.653-31.653c0-14.614,9.907-26.909,23.369-30.551c0.119-0.858,0.278-1.703,0.467-2.537
		c-0.108-0.888-0.17-1.79-0.17-2.707c0-12.071,9.641-21.883,21.643-22.173c0.307-0.337,0.622-0.667,0.941-0.994
		c3.244-9.577,12.301-16.473,22.974-16.473c3.534,0,6.889,0.762,9.917,2.121c0.079-0.024,0.158-0.045,0.237-0.069
		c20.174-6.162,36.97-16.938,48.206-29.62v-0.239h0.101c0.019,0.022,0.04,0.043,0.059,0.065c0.019-0.022,0.04-0.043,0.059-0.065
		h0.373v0.537c11.235,12.553,27.919,23.21,47.934,29.323c0.079,0.024,0.158,0.045,0.237,0.069c3.028-1.359,6.383-2.121,9.917-2.121
		c10.673,0,19.729,6.896,22.974,16.473c0.318,0.327,0.634,0.657,0.941,0.994c12.001,0.29,21.643,10.102,21.643,22.173
		c0,0.917-0.062,1.819-0.17,2.707c0.189,0.834,0.348,1.679,0.467,2.537c13.462,3.642,23.369,15.936,23.369,30.551
		C361.059,238.139,346.887,252.311,329.405,252.311z"/>
</g>
<g id="Layer_5">
</g>
<g id="Layer_6">
</g>
<g id="Layer_7">
</g>
</svg>
