<?xml version="1.0" encoding="utf-8"?>
<!-- Generator: Adobe Illustrator 16.0.0, SVG Export Plug-In . SVG Version: 6.00 Build 0)  -->
<!DOCTYPE svg PUBLIC "-//W3C//DTD SVG 1.1//EN" "http://www.w3.org/Graphics/SVG/1.1/DTD/svg11.dtd">
<svg version="1.1" id="Layer_1" xmlns="http://www.w3.org/2000/svg" xmlns:xlink="http://www.w3.org/1999/xlink" x="0px" y="0px"
	 width="100px" height="100px" viewBox="153.25 93.75 100 100" enable-background="new 153.25 93.75 100 100" xml:space="preserve">
<g>
	<path fill="#333" d="M215.533,118.119c-2.386,0-4.233,2.233-6.183,5.194h5.393C218.771,123.313,218.626,118.119,215.533,118.119
		z"/>
	<path fill="#333" d="M191.477,118.119c-3.094,0-3.239,5.194,0.79,5.194h5.394C195.71,120.352,193.863,118.119,191.477,118.119z"
		/>
	<path fill="#333" d="M203.25,93.75c-27.614,0-50,22.386-50,50s22.386,50,50,50s50-22.386,50-50S230.864,93.75,203.25,93.75z
		 M199.609,173.75h-23.72v-29.757h23.72V173.75z M199.609,139.624H173.25v-9.757h26.359V139.624z M190.229,126.954
		c-9.224,0-9.321-13.204-0.062-13.204c7.78,0,11.493,9.181,13.339,13.204c1.846-4.023,5.559-13.204,13.339-13.204
		c9.258,0,9.161,13.204-0.062,13.204c-5.534,0-13.276,0-13.276,0S195.762,126.954,190.229,126.954z M230.61,173.75h-23.72v-29.757
		h23.72V173.75z M233.25,139.624h-26.359v-9.757h26.359V139.624z"/>
</g>
</svg>
