<?xml version="1.0" encoding="utf-8"?>
<!-- Generator: Adobe Illustrator 17.1.0, SVG Export Plug-In . SVG Version: 6.00 Build 0)  -->
<!DOCTYPE svg PUBLIC "-//W3C//DTD SVG 1.1//EN" "http://www.w3.org/Graphics/SVG/1.1/DTD/svg11.dtd">
<svg version="1.1" xmlns="http://www.w3.org/2000/svg" xmlns:xlink="http://www.w3.org/1999/xlink" x="0px" y="0px"
	 viewBox="0 0 466.477 466.477" enable-background="new 0 0 466.477 466.477" xml:space="preserve">
<g id="background">
</g>
<g id="cake">
</g>
<g id="Layer_3">
</g>
<g id="Layer_4">
</g>
<g id="Layer_5">
</g>
<g id="Layer_6">
</g>
<g id="Layer_7">
	<path fill="#FFFFFF" d="M232.551,7.101C107.465,7.101,6.062,108.504,6.062,233.59s101.402,226.489,226.489,226.489
		c125.086,0,226.489-101.402,226.489-226.489S357.637,7.101,232.551,7.101z M240.281,210.905v132.04
		c42.213,0.517,75.27,5.221,75.27,10.951c0,6.075-37.16,11-83,11c-45.84,0-83-4.925-83-11c0-5.729,33.056-10.434,75.269-10.951
		v-132.04c0-0.41,0.177-0.8,0.486-1.162l-108.538-87.468h231.565l-108.538,87.469C240.105,210.105,240.281,210.495,240.281,210.905z
		"/>
</g>
</svg>
