<?xml version="1.0" encoding="utf-8"?>
<!-- Generator: Adobe Illustrator 17.1.0, SVG Export Plug-In . SVG Version: 6.00 Build 0)  -->
<!DOCTYPE svg PUBLIC "-//W3C//DTD SVG 1.1//EN" "http://www.w3.org/Graphics/SVG/1.1/DTD/svg11.dtd">
<svg version="1.1" xmlns="http://www.w3.org/2000/svg" xmlns:xlink="http://www.w3.org/1999/xlink" x="0px" y="0px"
	 viewBox="0 0 469.477 466.477" enable-background="new 0 0 469.477 466.477" xml:space="preserve">
<g id="background">
</g>
<g id="cake">
</g>
<g id="Layer_3">
</g>
<g id="Layer_4">
</g>
<g id="Layer_5">
	<path fill="#FFFFFF" d="M234.455,7.101C109.368,7.101,7.966,108.504,7.966,233.59s101.402,226.489,226.489,226.489
		S460.943,358.676,460.943,233.59S359.541,7.101,234.455,7.101z M355.538,238.76l-23.807,23.807l-97.276,97.276l-97.276-97.276
		l-23.807-23.807c-26.862-26.862-26.862-70.414,0-97.276c26.862-26.862,70.414-26.862,97.276,0l23.807,23.807l23.807-23.807
		c26.862-26.862,70.414-26.862,97.276,0C382.4,168.346,382.4,211.898,355.538,238.76z"/>
</g>
<g id="Layer_6">
</g>
<g id="Layer_7">
</g>
</svg>
