<?xml version="1.0" encoding="utf-8"?>
<!-- Generator: Adobe Illustrator 16.0.0, SVG Export Plug-In . SVG Version: 6.00 Build 0)  -->
<!DOCTYPE svg PUBLIC "-//W3C//DTD SVG 1.1//EN" "http://www.w3.org/Graphics/SVG/1.1/DTD/svg11.dtd">
<svg version="1.1" id="Layer_1" xmlns="http://www.w3.org/2000/svg" xmlns:xlink="http://www.w3.org/1999/xlink" x="0px" y="0px"
	 width="100px" height="100px" viewBox="207.5 208.542 100 100" enable-background="new 207.5 208.542 100 100"
	 xml:space="preserve">
<circle fill="#333" cx="257.5" cy="258.543" r="50"/>
<path id="share-2-icon" fill="#7DCFF4" d="M256.112,233.316c0,5.35-4.336,9.687-9.688,9.687c-5.349,0-9.686-4.337-9.686-9.687
	c0-5.351,4.337-9.688,9.686-9.688C251.776,223.629,256.112,227.965,256.112,233.316z M246.426,274.082
	c-5.351,0-9.688,4.338-9.688,9.688s4.337,9.687,9.688,9.687s9.688-4.336,9.688-9.687S251.776,274.082,246.426,274.082z
	 M261.202,233.784c7.733,0.743,14.442,5.051,18.458,11.257c2.897-1.332,6.114-1.664,9.143-1.039
	c-5.396-11.133-16.812-18.828-29.992-18.828c-0.018,0-0.034,0-0.052,0C260.406,227.661,261.299,230.628,261.202,233.784z
	 M237.844,271.739c-5.113-8.06-5.134-18.35-0.053-26.43c-2.447-1.766-4.334-4.262-5.339-7.167
	c-9.278,11.997-9.271,28.727,0.028,40.714C233.501,275.971,235.395,273.489,237.844,271.739z M279.66,271.924
	c-4.017,6.207-10.727,10.516-18.463,11.257c0.123,3.124-0.727,6.095-2.358,8.61c13.169-0.011,24.573-7.704,29.965-18.83
	C285.782,273.585,282.566,273.259,279.66,271.924z M285.812,248.796c-5.35,0-9.687,4.336-9.687,9.686
	c0,5.35,4.336,9.687,9.687,9.687c5.35,0,9.688-4.337,9.688-9.687C295.5,253.132,291.162,248.796,285.812,248.796z"/>
</svg>
