<?xml version="1.0" encoding="utf-8"?>
<!-- Generator: Adobe Illustrator 17.1.0, SVG Export Plug-In . SVG Version: 6.00 Build 0)  -->
<!DOCTYPE svg PUBLIC "-//W3C//DTD SVG 1.1//EN" "http://www.w3.org/Graphics/SVG/1.1/DTD/svg11.dtd">
<svg version="1.1" xmlns="http://www.w3.org/2000/svg" xmlns:xlink="http://www.w3.org/1999/xlink" x="0px" y="0px"
	 viewBox="0 0 512 512" enable-background="new 0 0 512 512" xml:space="preserve">
<g id="Layer_1">
	<path fill="#8E6EB0" d="M256,11.2c-125.1,0-226.5,101.4-226.5,226.5S130.9,464.2,256,464.2s226.5-101.4,226.5-226.5
		S381.1,11.2,256,11.2z M315.7,353.4c-15.4,7.2-51.4,28.2-109.4-87.3c-57.5-114.6-19.1-132.4-4.9-139.9c0.3-0.2,20.7-10.4,20.8-10.4
		l34.4,68.5L236,194.5c-21.6,11.8,23.4,101.3,45.4,90.4c0.9-0.4,20.3-10.1,20.4-10.2l34.7,68.3C336.4,343.1,316.8,352.9,315.7,353.4
		z"/>
</g>
<g id="Layer_2">
</g>
<g id="Layer_3">
</g>
</svg>
