<?xml version="1.0" encoding="utf-8"?>
<!-- Generator: Adobe Illustrator 17.1.0, SVG Export Plug-In . SVG Version: 6.00 Build 0)  -->
<!DOCTYPE svg PUBLIC "-//W3C//DTD SVG 1.1//EN" "http://www.w3.org/Graphics/SVG/1.1/DTD/svg11.dtd">
<svg version="1.1" xmlns="http://www.w3.org/2000/svg" xmlns:xlink="http://www.w3.org/1999/xlink" x="0px" y="0px"
	 viewBox="0 0 469.477 466.477" enable-background="new 0 0 469.477 466.477" xml:space="preserve">
<g id="background">
</g>
<g id="cake">
</g>
<g id="Layer_3">
</g>
<g id="Layer_4">
</g>
<g id="Layer_5">
</g>
<g id="Layer_6">
	<path fill="#FFFFFF" d="M234.974,7.101C109.887,7.101,8.485,108.504,8.485,233.59s101.402,226.489,226.489,226.489
		c125.086,0,226.489-101.402,226.489-226.489S360.06,7.101,234.974,7.101z M256.376,153.435c0.202-0.616,1.09-1.433,1.665-1.438
		c9.637-0.089,19.276-0.064,29.639-0.064c-15.934,17.4-31.467,34.363-47.001,51.326c-0.116-0.117-0.232-0.233-0.348-0.35
		C245.664,186.412,250.985,169.912,256.376,153.435z M235.207,198.074c-0.157,0.005-0.315,0.009-0.472,0.014
		c-4.919-15.267-9.838-30.535-14.848-46.085c10.125,0,19.908,0,30.141,0C245.046,167.491,240.127,182.782,235.207,198.074z
		 M286.414,145.543c-8.582,0-17.552,0-26.967,0c2.929-6.456,5.74-12.653,8.422-18.563
		C274.099,133.216,280.315,139.438,286.414,145.543z M262.212,123.999c-2.813,6.179-5.568,12.229-8.49,18.647
		c-4.978-6.367-9.666-12.363-14.579-18.647C247.025,123.999,254.474,123.999,262.212,123.999z M247.812,145.463
		c-8.661,0-16.943,0-25.677,0c4.327-5.541,8.499-10.884,12.825-16.424C239.249,134.521,243.411,139.84,247.812,145.463z
		 M230.772,124.016c-4.889,6.255-9.572,12.247-14.518,18.576c-2.822-6.304-5.519-12.33-8.315-18.576
		C215.563,124.016,222.923,124.016,230.772,124.016z M202.344,127.154c2.556,5.733,5.323,11.939,8.193,18.373
		c-9.268,0-18.211,0-26.546,0C189.875,139.637,196.062,133.443,202.344,127.154z M204.699,151.937
		c2.762,0.008,6.234-0.903,8.085,0.42c1.822,1.303,2.044,4.891,2.892,7.501c4.383,13.49,8.743,26.987,13.101,40.486
		c0.231,0.715,0.364,1.461,0.223,2.376c-15.352-16.76-30.704-33.521-46.522-50.789C190.35,151.93,197.525,151.917,204.699,151.937z
		 M234.974,365.214c-50.091,0-90.698-40.607-90.698-90.698c0-41.126,27.381-75.838,64.901-86.954
		c2.757,3.01,5.515,6.021,8.262,9.021c-35.682,7.995-62.352,39.84-62.352,77.933c0,44.121,35.767,79.887,79.887,79.887
		c44.12,0,79.887-35.767,79.887-79.887c0-38.09-26.666-69.932-62.343-77.931c2.748-3.001,5.504-6.011,8.261-9.021
		c37.516,11.118,64.893,45.828,64.893,86.951C325.671,324.607,285.064,365.214,234.974,365.214z"/>
</g>
<g id="Layer_7">
</g>
</svg>
