<!-- <?xml-stylesheet type="text/css" href="../css/tcstyles.css" ?> -->

<svg xmlns="http://www.w3.org/2000/svg" xmlns:xlink="http://www.w3.org/1999/xlink" version="1.1" id="tc_logo_svg" x="0px" y="0px" width="140px" height="140px" viewBox="0 0 140 140" enable-background="new 0 0 140 140" xml:space="preserve">

<path class="logo" fill="#F17735" d="M69.5 1C31.116 1 0 32.1 0 70.5C0 108.9 31.1 140 69.5 140S139 108.9 139 70.5 C139 32.1 107.9 1 69.5 1z M35.269 117.422c-1.833 0-3.319-1.486-3.319-3.319s1.486-3.319 3.319-3.319s3.319 1.5 3.3 3.3 S37.102 117.4 35.3 117.422z M35.269 30.216c-1.833 0-3.319-1.486-3.319-3.319s1.486-3.319 3.319-3.319s3.319 1.5 3.3 3.3 S37.102 30.2 35.3 30.216z M46.679 117.422c-1.833 0-3.319-1.486-3.319-3.319s1.486-3.319 3.319-3.319s3.319 1.5 3.3 3.3 S48.512 117.4 46.7 117.422z M46.679 101.527c1.65 0 3 1.3 3 2.988c0 1.649-1.338 2.987-2.988 3 c-1.649 0-2.987-1.338-2.987-2.987C43.691 102.9 45 101.5 46.7 101.527z M43.691 36.484c0-1.65 1.338-2.987 2.987-2.987 c1.65 0 3 1.3 3 2.987c0 1.65-1.338 2.988-2.988 2.988C45.029 39.5 43.7 38.1 43.7 36.484z M46.679 30.2 c-1.833 0-3.319-1.486-3.319-3.319s1.486-3.319 3.319-3.319s3.319 1.5 3.3 3.319S48.512 30.2 46.7 30.216z M58.09 117.4 c-1.833 0-3.319-1.486-3.319-3.319s1.486-3.319 3.319-3.319s3.319 1.5 3.3 3.319S59.923 117.4 58.1 117.422z M58.09 47.1 c-1.485 0-2.689-1.204-2.689-2.688c0-1.485 1.204-2.689 2.689-2.689c1.484 0 2.7 1.2 2.7 2.7 C60.778 45.9 59.6 47.1 58.1 47.101z M60.778 96.588c0 1.484-1.204 2.688-2.688 2.688c-1.485 0-2.689-1.204-2.689-2.688 c0-1.485 1.204-2.689 2.689-2.689C59.574 93.9 60.8 95.1 60.8 96.588z M58.09 38.642c-1.65 0-2.988-1.338-2.988-2.988 s1.338-2.987 2.988-2.987c1.649 0 3 1.3 3 2.987S59.739 38.6 58.1 38.642z M58.09 101.5 c1.649 0 3 1.3 3 2.988c0 1.649-1.338 2.987-2.987 2.987c-1.65 0-2.988-1.338-2.988-2.987 C55.102 102.9 56.4 101.5 58.1 101.527z M58.09 30.216c-1.833 0-3.319-1.486-3.319-3.319s1.486-3.319 3.319-3.319 s3.319 1.5 3.3 3.319S59.923 30.2 58.1 30.216z M69.5 117.422c-1.833 0-3.319-1.486-3.319-3.319s1.486-3.319 3.319-3.319 s3.319 1.5 3.3 3.319S71.333 117.4 69.5 117.422z M69.5 71.709c1.082 0 2 0.9 2 1.961c0 1.082-0.878 1.959-1.96 2 s-1.96-0.877-1.96-1.959C67.54 72.6 68.4 71.7 69.5 71.709z M67.54 67.33c0-1.083 0.878-1.96 1.96-1.96s1.96 0.9 2 2 s-0.878 1.96-1.96 1.96S67.54 68.4 67.5 67.33z M69.5 79.246c1.203 0 2.2 1 2.2 2.178s-0.975 2.178-2.178 2.2 s-2.178-0.975-2.178-2.178S68.297 79.2 69.5 79.246z M69.5 61.753c-1.203 0-2.178-0.975-2.178-2.178 c0-1.203 0.975-2.178 2.178-2.178s2.178 1 2.2 2.178C71.678 60.8 70.7 61.8 69.5 61.753z M69.5 54.2 c-1.336 0-2.42-1.083-2.42-2.42s1.084-2.42 2.42-2.42s2.42 1.1 2.4 2.42S70.836 54.2 69.5 54.241z M69.5 86.8 c1.336 0 2.4 1.1 2.4 2.42s-1.084 2.42-2.42 2.42s-2.42-1.083-2.42-2.42S68.164 86.8 69.5 86.759z M69.5 94.2 c1.485 0 2.7 1.2 2.7 2.689c0 1.484-1.204 2.688-2.689 2.688s-2.688-1.204-2.688-2.688 C66.812 95.4 68 94.2 69.5 94.244z M69.5 46.755c-1.485 0-2.688-1.204-2.688-2.689c0-1.485 1.203-2.689 2.688-2.689 s2.689 1.2 2.7 2.689C72.189 45.6 71 46.8 69.5 46.755z M69.5 39.472c-1.65 0-2.987-1.337-2.987-2.988 c0-1.65 1.337-2.987 2.987-2.987s2.987 1.3 3 2.987C72.487 38.1 71.2 39.5 69.5 39.472z M69.5 101.5 c1.65 0 3 1.3 3 2.988c0 1.649-1.337 2.987-2.987 2.987s-2.987-1.338-2.987-2.987 C66.513 102.9 67.8 101.5 69.5 101.527z M69.5 30.216c-1.833 0-3.319-1.486-3.319-3.319s1.486-3.319 3.319-3.319 s3.319 1.5 3.3 3.319S71.333 30.2 69.5 30.216z M80.91 117.422c-1.833 0-3.319-1.486-3.319-3.319s1.486-3.319 3.319-3.319 s3.319 1.5 3.3 3.319S82.743 117.4 80.9 117.422z M80.91 47.101c-1.484 0-2.688-1.204-2.688-2.688 c0-1.485 1.204-2.689 2.688-2.689c1.485 0 2.7 1.2 2.7 2.689C83.6 45.9 82.4 47.1 80.9 47.101z M83.6 96.6 c0 1.484-1.204 2.688-2.689 2.688c-1.484 0-2.688-1.204-2.688-2.688c0-1.485 1.204-2.689 2.688-2.689 C82.396 93.9 83.6 95.1 83.6 96.588z M80.91 39.472c-1.649 0-2.987-1.337-2.987-2.988c0-1.65 1.338-2.987 2.987-2.987 c1.65 0 3 1.3 3 2.987C83.898 38.1 82.6 39.5 80.9 39.472z M80.91 102.357c1.65 0 3 1.3 3 3 c0 1.649-1.338 2.986-2.988 2.986c-1.649 0-2.987-1.337-2.987-2.986C77.923 103.7 79.3 102.4 80.9 102.357z M80.91 30.2 c-1.833 0-3.319-1.486-3.319-3.319s1.486-3.319 3.319-3.319s3.319 1.5 3.3 3.319S82.743 30.2 80.9 30.216z M92.321 117.4 c-1.833 0-3.319-1.486-3.319-3.319s1.486-3.319 3.319-3.319s3.319 1.5 3.3 3.319S94.154 117.4 92.3 117.422z M92.321 101.527c1.649 0 3 1.3 3 2.988c0 1.649-1.338 2.987-2.987 2.987c-1.65 0-2.988-1.338-2.988-2.987 C89.333 102.9 90.7 101.5 92.3 101.527z M89.333 36.484c0-1.65 1.338-2.987 2.988-2.987c1.649 0 3 1.3 3 3 c0 1.65-1.338 2.988-2.987 2.988C90.671 39.5 89.3 38.1 89.3 36.484z M92.321 30.216c-1.833 0-3.319-1.486-3.319-3.319 s1.486-3.319 3.319-3.319s3.319 1.5 3.3 3.319S94.154 30.2 92.3 30.216z M103.731 117.422c-1.833 0-3.319-1.486-3.319-3.319 s1.486-3.319 3.319-3.319s3.319 1.5 3.3 3.319S105.564 117.4 103.7 117.422z M103.731 30.2 c-1.833 0-3.319-1.486-3.319-3.319s1.486-3.319 3.319-3.319s3.319 1.5 3.3 3.319S105.564 30.2 103.7 30.216z"/>
</svg>
